<svg width="502" height="139" viewBox="0 0 502 139" fill="none" xmlns="http://www.w3.org/2000/svg">
<g filter="url(#filter0_d_30_18)">
<path d="M2 26C2 11.6406 13.6406 0 28 0H470C484.359 0 496 11.6406 496 26V105C496 119.359 484.359 131 470 131H28C13.6406 131 2 119.359 2 105V26Z" fill="#393E46"/>
</g>
<path d="M12 31C12 16.6406 23.6406 5 38 5H460C474.359 5 486 16.6406 486 31V84C486 98.3594 474.359 110 460 110H38C23.6406 110 12 98.3594 12 84V31Z" fill="white"/>
<defs>
<filter id="filter0_d_30_18" x="0" y="0" width="502" height="139" filterUnits="userSpaceOnUse" color-interpolation-filters="sRGB">
<feFlood flood-opacity="0" result="BackgroundImageFix"/>
<feColorMatrix in="SourceAlpha" type="matrix" values="0 0 0 0 0 0 0 0 0 0 0 0 0 0 0 0 0 0 127 0" result="hardAlpha"/>
<feOffset dx="2" dy="4"/>
<feGaussianBlur stdDeviation="2"/>
<feComposite in2="hardAlpha" operator="out"/>
<feColorMatrix type="matrix" values="0 0 0 0 0 0 0 0 0 0 0 0 0 0 0 0 0 0 0.25 0"/>
<feBlend mode="normal" in2="BackgroundImageFix" result="effect1_dropShadow_30_18"/>
<feBlend mode="normal" in="SourceGraphic" in2="effect1_dropShadow_30_18" result="shape"/>
</filter>
</defs>
</svg>
